Patient4_TMGait_0pt6_02_right_39_EMG.mot
version=1
nRows=23
nColumns=33
inDegrees=no
endheader
time	1LAddLong	2LGlutMax	3LGlutMed	4LIliopsoas	5LSemiMemb	6LBicFemLong	7LRecFem	8LVastMed	9LVastLat	10LGasMed	11LTibAnt	12lTibPost	13LPeroneusLong	14LSol	15LExtDigLong	16LFlexDigLong	17RAddLong	18RGlutMax	19RGlutMed	20RIliopsoas	21RSemiMemb	22RBicFemLong	23RRecFem	24RVastMed	25RVastLat	26RGasMed	27RTibAnt	28RTibPost	29RPeroneusLong	30RSol	31RExtDigLong	32RFlexDigLong
48.293	0.011139	0.020599	0.070038	-0.007324	-0.049744	0.14679	0.059052	0.000153	-0.015259	0.066986	0.005798	-0.053558	0.024109	0.59998	-0.015564	0.30823	-0.019989	-0.084686	0.020599	-0.032806	0.17212	0.006561	-0.050507	-0.033112	0.002136	-0.009003	0.017242	-0.000916	-0.032654	-0.024872	-0.003357	-0.003357
48.294	0.007019	0.024567	0.031281	-0.020905	-0.032196	0.20783	0.041962	0.006866	-0.010223	0.002136	0.008087	-0.027466	0.021057	0.62668	-0.012512	0.17716	-0.065308	-0.11734	0.061493	-0.074158	0.059509	-0.001678	-0.025482	-0.087128	0.000305	-0.01297	0.055237	-0.00351	0.048218	-0.043945	-0.004883	-0.01297
48.295	0.006714	0.013275	0.01236	-0.000458	-0.001678	0.1358	-0.022583	0.00946	-0.076752	0.068207	0.006714	0.024719	-0.026398	0.25146	-0.016785	0.121	-0.049438	-0.12405	0.10147	-0.10666	-0.022583	-0.007477	-0.050964	-0.081635	0.007629	-0.018921	0.094604	-0.001221	0.077667	-0.029297	-0.004883	-0.010223
48.296	0.000305	0.044861	0.00061	0.02243	-0.024719	0.035248	0.030518	-0.004272	0.015564	-0.36926	0.009613	-0.012054	0.005493	-0.20752	-0.001678	-0.059814	-0.033417	-0.093384	0.007019	-0.02121	-0.012054	0.010071	-0.066223	-0.085907	0.020905	-0.01709	0.085907	-0.002899	0.059357	-0.040131	-0.006561	-0.007324
48.297	-0.002136	0.059204	-0.004578	0.011749	-0.048218	0.045776	0.10437	-0.018768	0.042114	-0.23346	0.005493	-0.015869	0.040131	-0.24674	-0.010834	0.30777	-0.029755	0.006866	0.052643	0.057678	-0.000153	0.002289	-0.083618	-0.063629	0.012054	-0.010681	0.070801	0	-0.076294	-0.015106	-0.003052	-0.004578
48.298	0.047607	0.023651	0.010834	0.00885	-0.052948	-0.008698	0.15625	-0.018768	0.030518	-0.088806	0.003357	-0.007477	0.059662	-0.059204	0.006409	0.21454	-0.020599	-0.11398	-0.11353	0.11658	-0.022888	0.079193	-0.059052	-0.061035	0.029907	-0.012817	0.068817	-0.009003	-0.17059	-0.010834	-0.005798	-0.001831
48.299	-0.01236	0.000763	0.06546	0.010681	0.041809	-0.06134	0.18112	-0.021362	0.037994	0.027618	0.011292	0.007629	0.05127	0.13519	-0.009766	0.13931	-0.006104	-0.10941	-0.3714	0.11536	-0.019836	0.077209	-0.025787	-0.070648	0.014343	-0.012817	0.070648	-0.001373	-0.15076	-0.004272	0.000305	0.000458
48.3	-0.014954	-0.012054	0.074463	0.011902	0.13718	-0.050507	0.15182	-0.025635	0.052338	0.059052	0.002747	0.023804	-0.048981	-0.093079	-0.014038	-0.12085	0.0177	-0.12573	-0.28412	0.020142	0.011597	0.027313	0.059814	-0.052948	0.022125	-0.015564	0.05661	-0.002594	-0.10193	-0.009003	-0.00412	0.006104
48.301	0.019836	0.011749	0.021057	-0.007935	0.084991	0.02121	0.16113	-0.031586	0.059814	0.070953	0.00351	0.024261	-0.06546	0.083008	0.007172	-0.046692	0.038757	-0.11978	-0.10559	-0.072479	0.075073	-0.020599	0.0737	-0.052032	0.013275	-0.014648	0.062408	-0.000916	-0.081024	-0.030365	-0.004883	0.005646
48.302	0.008698	0.024872	-0.000458	-0.002747	0.039215	0.16892	0.22766	-0.015411	0.034637	0.068512	0.000153	-0.00412	-0.008545	0.1886	0.029144	-0.038147	0.037537	-0.10056	0.09964	-0.13397	0.066223	-0.016327	0.091553	-0.000916	0.037384	-0.013275	0.067291	-0.002594	-0.078583	-0.048828	-0.005646	0.017853
48.303	-0.002136	0.027924	-0.008392	0.020599	0.006561	0.3305	0.18295	-0.004272	-0.002594	0.062714	0.002441	-0.063934	0.021667	0.061035	0.016937	-0.017548	0.040436	-0.074005	0.33707	-0.09552	0.035706	0.0354	0.088196	-0.02121	0.033417	-0.011444	0.010071	-0.00412	-0.04303	-0.010223	0.002747	0.003967
48.304	-0.036774	0.036469	-0.055847	0.011444	0.024414	0.28793	0.17746	0.000153	-0.000305	-0.004883	-0.001068	0.095367	0.002594	-0.18875	0.00885	-0.041351	0.018616	-0.09613	0.24521	0.012054	-0.15289	0.11612	0.065002	-0.005798	0.029449	-0.013123	0.000763	-0.007019	0.009918	-0.037537	-0.012054	0.00473
48.305	-0.046692	0.075378	-0.021362	0.019073	0.001831	0.03067	0.19363	-0.00412	-0.001678	-0.006714	-0.006561	-0.019684	-0.093994	-0.03006	0.025482	-0.053101	0.016174	-0.0914	0.12878	0.013275	-0.11276	0.10559	0.019379	-0.058746	0.032959	-0.015106	0.09079	-0.000763	-0.011292	-0.053101	-0.005646	0.003357
48.306	-0.039063	0.080872	0.090027	-0.000153	-0.026245	-0.053101	0.19531	-0.006866	0.001221	0.005035	0.002289	-0.049286	-0.10117	0.077972	0.00946	-0.060425	0.014191	-0.08316	0.18265	0.022888	-0.093842	0.054016	-0.006561	-0.066376	0.028381	-0.015259	0.11978	-0.002136	-0.023499	-0.030518	-0.005798	-0.000458
48.307	0.023346	0.001984	0.079651	0.002136	0.041199	-0.13001	0.14267	-0.014191	-0.008545	0.00824	0.002136	-0.012054	-0.053253	0.034637	0.005341	-0.057526	0.01709	-0.11307	0.023956	0.030365	-0.17319	0.047455	0.004425	-0.095215	0.014038	-0.00946	0.11169	-0.00061	-0.12314	-0.05661	-0.006714	0.000763
48.308	0.019379	0.01358	0.005951	0.014191	0.039215	-0.11093	0.03891	-0.025024	-0.002136	0.001526	0.001221	-0.000763	-0.023651	0.045471	0.011292	-0.052795	0.02243	-0.11887	0.04303	0.080261	-0.043182	0.030365	0.001221	-0.049286	0.021515	-0.011444	0.17899	-0.003815	-0.31204	-0.077667	0.006104	-0.005493
48.309	0.005188	0.056305	0.014038	0.010376	0.004425	-0.23911	0.028992	-0.028381	-0.001831	0.056915	0.004883	0.01297	-0.032196	0.048218	-0.01236	-0.059357	-0.001984	-0.094604	0.067139	0.069122	0.1059	0.004425	0.006104	-0.050201	0.018311	-0.003357	0.009003	-0.001678	-0.11246	-0.077362	-0.001984	-0.006256
48.31	0.032349	0.054474	-0.020599	0.006104	0.017395	-0.26367	-0.004578	-0.033569	0.04776	0.045929	0.002747	0.005646	-0.011444	0.003662	-0.039825	-0.037994	0.005035	-0.085449	0.103	0.04303	0.1059	-0.0383	0.016479	-0.066376	0.021667	-0.010376	-0.087585	-0.006409	0.31311	-0.052032	-0.007782	-0.000305
48.311	0.028992	0.001221	-0.10315	0.007935	0.007629	0.009308	0.014191	-0.032806	0.060577	0.038147	0.001678	0.010529	-0.013428	-0.010834	-0.003815	-0.04425	0.023346	-0.095673	0.060272	0.019073	0.079346	-0.046387	-0.007935	-0.03891	0.023193	-0.00885	-0.10986	-0.002747	0.26352	-0.037537	-0.007935	-0.005188
48.312	0.016785	-0.023956	-0.16235	0.007935	-0.055542	0.15091	0.07431	-0.032196	0.027771	0.019836	0.003357	0.010376	0.022736	0.014191	0.0177	-0.03067	0.014801	-0.074615	0.090637	0.031128	0.019684	-0.071411	-0.023651	-0.033264	0.034332	-0.00473	0.011292	-0.002747	0.26581	-0.059052	0.003052	0.003357
48.313	0.013275	-0.062256	-0.10742	0.002136	-0.062256	0.13748	0.095978	-0.028229	0.034485	0.034332	0.001068	0.023041	0.091858	0.12054	0.016327	-0.014343	-0.00412	-0.093689	-0.007324	0.002594	0.035095	-0.02655	0.007324	0.04425	0.034943	-0.003967	-0.089111	-0.000763	0.33417	-0.057373	0.000916	0.003662
48.314	0.013733	-0.045776	-0.10895	0.008087	0.007477	0.07309	0.10513	-0.018158	0.042419	0.057068	0.000458	0.00061	0.14496	0.16769	0.036316	-0.013733	-0.013885	-0.067596	-0.20599	0.023499	0.059357	-0.009918	0.026245	-0.016022	0.024109	-0.007324	-0.074615	-0.002441	0.32135	-0.051727	-0.003204	-0.001526
48.315	0.005188	-0.027008	-0.08255	0.009766	0.010376	0.038147	0.1178	-0.024109	0.038757	0.046692	0.008698	0.001373	0.024567	0.08255	0.004425	-0.002594	-0.012665	-0.027161	-0.36453	0.008087	-0.012207	-0.046692	0.009918	-0.042725	0.000153	-0.007782	-0.033417	-0.005035	-0.21255	-0.028992	-0.003967	0.002441
